<svg version="1.1" id="Layer_1" xmlns="http://www.w3.org/2000/svg" xmlns:xlink="http://www.w3.org/1999/xlink" x="0px" y="0px"
	 width="100%" viewBox="0 0 1024 1024" enable-background="new 0 0 1024 1024" xml:space="preserve">
<path fill="#000000" opacity="1.000000" stroke="none" 
	d="
M1.000000,1014.000000 
	C1.000000,720.637329 1.000000,427.274597 1.199776,133.659607 
	C2.551676,135.383362 3.878503,135.121323 5.489070,133.887970 
	C7.835458,132.091141 10.639524,131.303467 13.493782,131.765182 
	C19.404133,132.721283 22.500973,129.891571 24.354786,124.672112 
	C30.805927,106.508743 43.887856,97.200783 62.973660,96.035393 
	C65.349953,95.890297 67.631950,95.402473 69.431145,93.743835 
	C76.886421,86.871025 84.949593,80.421310 89.655296,71.214798 
	C94.656120,61.430904 102.069221,53.592587 109.083389,45.407860 
	C110.791557,43.414623 112.836502,41.558537 115.064087,40.187847 
	C125.259872,33.914104 135.448624,27.606993 145.905823,21.789938 
	C150.611877,19.172087 152.904297,16.616177 150.175705,11.196522 
	C149.270187,9.397931 149.294998,6.944859 149.478912,4.842126 
	C149.628876,3.127650 149.394608,1.941351 148.000000,1.000000 
	C396.029388,1.000000 644.058777,1.000000 892.354736,1.162588 
	C891.053467,2.363877 891.390259,3.399084 892.519043,4.580550 
	C894.085327,6.219821 894.982239,8.383595 894.857361,10.500038 
	C894.369629,18.766802 898.946594,23.379461 905.780090,26.587767 
	C908.336792,27.788143 910.733398,29.396828 913.374084,30.340099 
	C927.506775,35.388309 941.159973,40.768398 951.842224,52.340073 
	C959.853882,61.018738 969.274658,68.285591 972.843079,80.298668 
	C974.032104,84.301353 976.626587,87.951866 980.246582,90.113007 
	C990.514404,96.242935 998.727844,104.019356 1003.211487,115.394875 
	C1004.867737,119.597130 1008.410461,121.062843 1012.919312,120.857018 
	C1017.168030,120.663071 1020.864929,118.470078 1025.000000,118.000000 
	C1025.000000,392.029388 1025.000000,666.058777 1024.728760,940.559875 
	C1014.486755,946.240723 1004.356934,950.997192 999.884460,962.755981 
	C997.415894,969.246155 991.832153,971.577454 984.810852,970.404968 
	C980.150879,969.626892 975.929504,969.992798 972.075806,973.006897 
	C966.841797,977.100403 961.515564,981.075989 956.218323,985.088257 
	C953.921082,986.828186 951.777832,988.851135 950.973694,991.601624 
	C948.940857,998.555725 943.604248,1001.626404 937.359558,1003.504883 
	C930.680054,1005.514282 923.896423,1007.185669 917.133850,1008.909058 
	C909.918335,1010.747986 905.451477,1016.104797 900.922729,1021.387817 
	C899.948975,1022.523743 899.935791,1023.817932 901.000000,1025.000000 
	C622.970642,1025.000000 344.941284,1025.000000 66.646973,1024.887695 
	C66.810043,1024.340332 67.238037,1023.905090 67.666031,1023.469910 
	C62.577026,1020.383301 58.615997,1015.544434 51.877934,1015.106445 
	C43.128487,1014.537720 34.556755,1012.733704 26.489386,1008.941223 
	C23.819748,1007.686218 20.875429,1006.847900 17.966084,1006.302246 
	C9.538556,1004.721680 2.799605,1007.886536 1.000000,1014.000000 
M256.357635,879.735229 
	C262.599701,875.389099 268.843231,871.045044 275.083649,866.696472 
	C291.132263,855.513306 307.284119,844.473877 323.175629,833.071716 
	C329.526459,828.514954 336.312500,824.545776 342.390533,819.737244 
	C346.063599,816.831299 348.158630,816.898682 351.856445,819.051453 
	C357.565399,822.375183 363.689850,825.001221 369.702209,827.784607 
	C383.561127,834.200317 397.864594,839.473938 412.401642,844.122742 
	C414.379425,844.755188 415.164368,845.904541 415.507111,848.016113 
	C416.907532,856.645142 418.989197,865.104065 419.894287,873.887390 
	C421.193542,886.495667 424.573273,898.834778 426.320526,911.456848 
	C428.838715,929.648499 432.400116,947.694397 435.433899,965.816284 
	C437.288940,976.897034 445.640808,984.557983 456.667999,984.584656 
	C493.500763,984.673767 530.334106,984.691345 567.166687,984.559631 
	C575.156555,984.531067 581.234192,980.637634 585.984436,974.120239 
	C589.628906,969.119934 588.553162,963.367310 589.773315,957.989441 
	C594.247070,938.271545 596.901062,918.237488 600.555054,898.381470 
	C603.427246,882.774536 606.290955,867.171387 608.809326,851.504211 
	C609.481567,847.321716 611.188477,844.366150 615.755737,842.889282 
	C636.791687,836.087524 657.179993,827.695557 676.435913,816.738525 
	C678.544800,815.538513 679.863220,816.676636 681.331421,817.709656 
	C703.978210,833.643738 726.597656,849.616699 749.269043,865.515564 
	C759.306519,872.554504 769.586060,879.255493 779.496643,886.466003 
	C788.084106,892.713867 794.228271,893.194397 803.264282,887.901794 
	C806.383057,886.075012 808.514832,883.418335 810.977600,880.986023 
	C821.676025,870.419922 832.765930,860.228577 843.093994,849.314697 
	C855.853943,835.831055 868.920654,822.628113 882.490112,810.024902 
	C893.192871,800.084290 895.799866,787.411560 886.320557,775.560608 
	C883.955139,772.603333 881.638184,769.573914 879.423462,766.515259 
	C869.041626,752.177368 859.029419,737.572266 848.677734,723.212097 
	C838.248596,708.744324 827.587097,694.443909 816.989136,680.098511 
	C815.983032,678.736572 815.784241,677.684387 816.673157,676.068665 
	C819.380188,671.147949 821.974121,666.154053 824.365540,661.072571 
	C831.213989,646.520020 837.768188,631.835876 841.839661,616.206848 
	C842.935364,612.000854 845.362671,609.933777 849.635620,609.029846 
	C860.174988,606.800110 870.900574,605.820862 881.474121,603.743103 
	C900.142212,600.074646 918.986023,597.308228 937.726624,593.996704 
	C946.039246,592.527771 954.216248,589.770813 962.568115,589.166992 
	C974.866394,588.277893 984.506348,579.899292 984.558167,567.661072 
	C984.714111,530.828796 984.722107,493.994904 984.547607,457.162750 
	C984.500977,447.318970 978.601135,438.121246 967.227661,436.009705 
	C945.573303,431.989471 923.780151,428.901337 902.086060,425.201385 
	C883.963074,422.110474 865.777283,419.403534 847.682617,416.153931 
	C845.226990,415.712952 843.589661,414.339111 842.854797,411.782593 
	C841.392883,406.696655 840.106445,401.515289 838.102539,396.638367 
	C831.562866,380.722931 825.327026,364.651215 816.576355,349.749603 
	C815.640991,348.156708 816.067688,347.092316 817.049316,345.721710 
	C821.097229,340.069641 824.988281,334.305634 828.980286,328.613129 
	C848.599792,300.636017 868.230835,272.666992 887.862976,244.698715 
	C893.598938,236.527115 892.924133,227.572845 885.898743,220.194443 
	C882.018433,216.119232 878.029358,212.147308 874.079651,208.138367 
	C863.508240,197.408478 853.080444,186.531509 842.316345,175.998428 
	C830.847656,164.775864 819.125488,153.795975 808.386902,141.871017 
	C800.043823,132.606186 786.614746,131.821808 778.255981,137.955475 
	C774.771606,140.512329 771.540833,143.478195 767.960815,145.772049 
	C755.390198,153.826462 743.713074,163.110764 731.471436,171.609726 
	C721.132507,178.787628 711.014771,186.284286 700.807556,193.651581 
	C694.233765,198.396378 687.609619,203.075394 681.143555,207.963181 
	C678.666809,209.835373 676.784973,209.121033 674.338806,207.905609 
	C663.779114,202.658783 653.264709,197.263443 642.416809,192.671097 
	C632.664307,188.542496 622.504395,185.373535 612.508667,181.825027 
	C610.800964,181.218811 610.034180,180.309219 609.561890,178.383865 
	C606.045471,164.046738 604.288391,149.373718 601.915405,134.865936 
	C599.244568,118.537041 595.224182,102.444046 593.490112,85.937202 
	C592.697327,78.390266 589.722717,71.054405 589.106873,63.511028 
	C588.051819,50.587013 579.355347,41.434189 566.581055,41.419380 
	C530.248047,41.377266 493.915039,41.368706 457.582092,41.398445 
	C445.457428,41.408367 437.294952,48.798592 435.368896,60.732044 
	C431.917938,82.112900 428.620270,103.524864 425.045563,124.875244 
	C422.175323,142.018280 419.572876,159.220673 416.474884,176.333328 
	C415.886749,179.582077 414.498047,181.336914 411.525787,182.317276 
	C404.452728,184.650223 397.372589,186.972427 390.368286,189.501068 
	C377.108490,194.287979 364.350433,200.278763 351.937714,206.886398 
	C348.274048,208.836685 346.049133,208.471863 343.095978,206.362244 
	C323.391968,192.286346 303.481628,178.494110 283.947205,164.187912 
	C271.231415,154.875397 258.433655,145.689117 245.433929,136.788437 
	C239.591660,132.788345 228.277832,132.850037 223.742401,136.722992 
	C219.601761,140.258820 215.627106,144.009354 211.782227,147.867508 
	C198.933807,160.760239 186.190948,173.758102 173.379791,186.688080 
	C161.861038,198.313644 150.177063,209.778931 138.819977,221.559784 
	C133.055084,227.539764 132.947510,237.604462 137.610321,244.179443 
	C151.973099,264.432251 166.273193,284.729980 180.499969,305.078552 
	C189.584717,318.072479 198.444855,331.223541 207.546036,344.205750 
	C208.792892,345.984314 209.009308,347.233521 207.948425,349.095612 
	C196.983444,368.341919 188.918488,388.877747 182.009460,409.824097 
	C180.488876,414.434174 178.272507,415.750854 174.277008,416.396240 
	C153.841278,419.697021 133.331894,422.628998 113.015167,426.553864 
	C94.462509,430.137909 75.589928,431.841522 57.219044,436.401550 
	C47.933304,438.706451 41.492752,446.084015 41.453945,455.697632 
	C41.302567,493.196625 41.280830,530.697144 41.462070,568.195862 
	C41.513000,578.734131 51.172855,588.874878 61.093788,589.485657 
	C75.007111,590.342163 88.351143,594.597717 102.168381,596.126831 
	C109.711548,596.961609 117.060600,599.457642 124.595581,600.477966 
	C142.316055,602.877686 159.733658,606.960266 177.408157,609.570557 
	C179.134048,609.825500 180.482971,610.056519 181.079300,612.166199 
	C187.370651,634.424011 196.848236,655.396057 207.264893,675.958557 
	C208.589523,678.573364 208.006104,680.287231 206.575073,682.287109 
	C199.634827,691.986389 192.715561,701.700623 185.787903,711.408936 
	C175.115387,726.365173 164.462250,741.335327 153.760651,756.270813 
	C148.377777,763.783264 143.113327,771.394470 137.414963,778.662903 
	C132.010330,785.556580 132.776413,799.026184 139.052048,805.114807 
	C147.938675,813.736572 156.623444,822.567810 165.334488,831.368835 
	C175.447632,841.586365 185.243393,852.133728 195.656693,862.033264 
	C203.211807,869.215515 210.661057,876.473328 217.695847,884.152161 
	C224.879532,891.993652 235.969559,893.747437 244.314606,888.126099 
	C248.169983,885.529053 251.934296,882.796814 256.357635,879.735229 
z"/>
<path fill="#000000" opacity="1.000000" stroke="none" 
	d="
M430.393677,603.599365 
	C420.276825,594.396301 411.922028,584.360352 405.578461,572.477905 
	C398.797791,559.776672 393.499603,546.582397 391.638184,532.398499 
	C390.203674,521.467590 390.609283,510.364380 391.188751,499.240997 
	C391.978699,484.077179 397.106720,470.353271 403.300354,457.092529 
	C410.453217,441.778107 421.745056,429.273499 434.569763,418.282806 
	C450.933472,404.259308 470.048370,395.227112 491.058929,392.037170 
	C510.552307,389.077545 530.365356,389.345520 549.666321,395.669464 
	C562.357300,399.827698 573.917297,405.714111 584.836975,413.387512 
	C601.056030,424.784760 613.489990,439.412354 622.512939,456.769440 
	C628.628357,468.533295 633.201965,481.239594 634.515991,494.486542 
	C635.551270,504.923737 635.324524,515.518677 634.800720,526.136536 
	C634.042786,541.503601 628.946350,555.382690 622.719116,568.775269 
	C614.940369,585.504456 602.611816,599.225525 588.159424,610.547607 
	C572.734863,622.631165 554.945068,630.580139 535.655273,633.887329 
	C523.790405,635.921509 511.594177,635.727600 499.395996,634.876587 
	C489.769409,634.205017 480.688965,631.802002 471.780823,628.946533 
	C461.408264,625.621582 451.712616,620.419495 442.754669,614.033997 
	C438.439575,610.958069 434.276245,607.724548 430.393677,603.599365 
z"/>
</svg>