<?xml version="1.0" encoding="UTF-8"?>
<svg version="1.1" xmlns="http://www.w3.org/2000/svg" width="1200" height="1200">
<path d="M0 0 C1.75354294 -0.01073296 1.75354294 -0.01073296 3.54251099 -0.02168274 C4.82152283 -0.02437164 6.10053467 -0.02706055 7.41830444 -0.02983093 C8.78196382 -0.03609911 10.14562151 -0.04274623 11.50927734 -0.04974365 C15.98463764 -0.07074898 20.45999814 -0.08114456 24.93539429 -0.09111023 C26.47924187 -0.09515948 28.02308927 -0.09927645 29.56693649 -0.10346031 C36.82313 -0.12250634 44.07931338 -0.1367371 51.33552706 -0.14507228 C59.69512153 -0.15483482 68.05445053 -0.18113092 76.41395152 -0.22157317 C82.8854747 -0.25180051 89.35692208 -0.26654751 95.82851446 -0.26985329 C99.68875063 -0.27219675 103.54870301 -0.28106436 107.40886307 -0.30631447 C111.04512159 -0.32971582 114.6809119 -0.33378062 118.31722641 -0.32355309 C120.27385235 -0.32282719 122.23045515 -0.34183442 124.1869812 -0.36161804 C133.31159785 -0.30819269 141.17524159 1.01427642 148.14633179 7.27217102 C154.94072701 14.79750582 156.28775688 25.11033826 157.92855835 34.76338196 C158.16467904 36.10502055 158.40174667 37.44649278 158.63967896 38.78781128 C159.27747112 42.39945814 159.90175399 46.01331713 160.52320576 49.62780666 C161.17788472 53.42323261 161.84425119 57.21660769 162.50906372 61.01026917 C163.62246106 67.37380256 164.72748688 73.73874358 165.82699585 80.10469055 C167.09670905 87.45573898 168.37759312 94.80477002 169.66490579 102.1527555 C171.03895874 109.99638062 172.40523544 117.8413453 173.76904583 125.68675709 C174.16129097 127.94022087 174.55494114 130.19343548 174.94889069 132.44660187 C175.56772322 135.98839556 176.18130045 139.53106182 176.79087067 143.07446098 C177.12147323 144.98939851 177.45700553 146.9034829 177.79269409 148.8175354 C177.98885315 149.96407089 178.18501221 151.11060638 178.38711548 152.29188538 C178.55890446 153.28365154 178.73069344 154.27541771 178.90768814 155.2972374 C179.28792664 158.27722757 179.33429134 161.14630737 179.27133179 164.14717102 C179.81733032 164.25746643 180.36332886 164.36776184 180.9258728 164.48139954 C186.50442469 165.65761817 191.83541411 167.186828 197.20883179 169.08467102 C198.4738855 169.53048523 198.4738855 169.53048523 199.76449585 169.98530579 C215.84029786 175.77369678 231.64999971 182.49961562 246.80648804 190.39326477 C247.94988647 190.97205383 249.09328491 191.5508429 250.27133179 192.14717102 C251.31281372 192.79444153 251.31281372 192.79444153 252.37533569 193.45478821 C254.73012542 194.77951702 256.6078284 195.66757897 259.27133179 196.14717102 C262.88112972 194.97704013 265.56270465 192.85291445 268.52133179 190.52217102 C269.35342163 189.90986633 270.18551147 189.29756165 271.04281616 188.66670227 C273.48041446 186.86065496 275.8794525 185.01316878 278.27133179 183.14717102 C279.42186885 182.26370099 280.57284607 181.38080358 281.72445679 180.49873352 C283.76780735 178.92168603 285.8042224 177.33561411 287.83383179 175.74092102 C292.01678985 172.52326097 296.39989945 169.60043635 300.77133179 166.64717102 C307.36662676 162.18968363 313.72037529 157.57404274 319.98617554 152.66279602 C324.41760399 149.22656701 329.024849 146.03947784 333.61679077 142.82319641 C338.93010519 139.10037486 344.20448525 135.32773759 349.45883179 131.52217102 C350.961401 130.43488313 352.4640046 129.34764277 353.96664429 128.26045227 C355.04994019 127.4766217 355.04994019 127.4766217 356.15512085 126.67695618 C360.50114303 123.53526548 364.85122984 120.40005283 369.23226929 117.30732727 C371.08966069 115.98709919 372.93244604 114.64560012 374.74789429 113.26826477 C380.90367168 108.75475308 387.01058886 106.87521016 394.68930054 107.27217102 C404.81778276 108.94572402 411.88794179 117.46279505 418.82089233 124.39033508 C419.74061829 125.30173752 420.66034424 126.21313995 421.60794067 127.15216064 C424.11057548 129.63302243 426.60676652 132.12026673 429.10108924 134.60948277 C430.66404317 136.16877461 432.22828289 137.72676503 433.79294777 139.2843399 C439.26352394 144.7304877 444.72841487 150.1822736 450.18856812 155.63887024 C455.25961342 160.70627871 460.34365069 165.76039282 465.43375367 170.80865121 C469.82080385 175.16090933 474.19808469 179.52283689 478.56812125 183.89217734 C481.17073646 186.49400322 483.77709303 189.09177845 486.39359093 191.67964935 C489.31317533 194.56799409 492.21220172 197.4761821 495.10995483 200.38642883 C495.96773026 201.22936996 496.82550568 202.0723111 497.70927429 202.9407959 C504.16435268 209.47518536 509.1871287 216.12841898 509.95883179 225.52217102 C509.33050919 236.73772941 501.69951262 245.61688508 495.19320679 254.23310852 C492.29042831 258.08613254 489.54746389 262.03447347 486.83383179 266.02217102 C483.0873094 271.51333866 479.30028058 276.97193927 475.45883179 282.39717102 C471.04344324 288.6336281 466.64937195 294.88443284 462.27133179 301.14717102 C457.95234444 307.32405996 453.62238265 313.49282462 449.27133179 319.64717102 C443.13900179 328.32164557 437.01527886 337.0036004 430.97201538 345.74043274 C429.7663335 347.44666472 428.52584083 349.12853785 427.26205444 350.79219055 C426.61156128 351.66343567 425.96106812 352.53468079 425.29086304 353.43232727 C424.68991821 354.21615784 424.08897339 354.9999884 423.46981812 355.80757141 C422.05302254 358.08028188 422.05302254 358.08028188 422.43441772 360.63813782 C423.30730999 363.25503215 424.35243474 365.56790047 425.64242554 368.00654602 C426.1293689 368.94441956 426.61631226 369.88229309 427.11801147 370.84858704 C427.64298218 371.85461975 428.16795288 372.86065247 428.70883179 373.89717102 C437.13742147 390.42058227 443.74679468 407.53908675 449.89633179 425.02217102 C450.23954468 425.99742737 450.58275757 426.97268372 450.93637085 427.97749329 C451.39994995 429.32605408 451.39994995 429.32605408 451.87289429 430.70185852 C452.14440308 431.49060364 452.41591187 432.27934875 452.69564819 433.09199524 C453.27133179 435.14717102 453.27133179 435.14717102 453.27133179 438.14717102 C454.52899353 438.31120926 455.78665527 438.4752475 457.08242798 438.64425659 C472.68645891 440.70952881 488.21992233 443.15151216 503.75570679 445.67451477 C505.08228257 445.88960693 506.40886396 446.10466453 507.73545074 446.3196888 C513.95409347 447.32803184 520.17229484 448.3390428 526.38994193 449.35350698 C533.50488674 450.51427887 540.6213105 451.66538999 547.73909163 452.80863756 C553.29511969 453.70168289 558.84965793 454.60363283 564.40317369 455.51216894 C567.69878357 456.05110217 570.99499042 456.58516136 574.29256439 457.11202812 C577.95890121 457.69874489 581.62257877 458.30000193 585.28598022 458.90473938 C586.35625458 459.07265991 587.42652893 459.24058044 588.52923584 459.41358948 C598.83289345 461.14482497 607.6428374 463.65383559 614.27133179 472.14717102 C617.58830763 477.67546409 618.39147095 482.58560137 618.41850281 488.95812988 C618.42565811 490.12011902 618.43281342 491.28210815 618.44018555 492.47930908 C618.4442189 494.37840782 618.4442189 494.37840782 618.44833374 496.31587219 C618.45460397 497.66982699 618.46125126 499.02378008 618.46824646 500.37773132 C618.48922378 504.81518876 618.49964333 509.2526463 618.50961304 513.69013977 C618.51366304 515.22191701 618.51778004 516.75369408 618.52196312 518.28547096 C618.54100138 525.48399593 618.55523492 532.68251073 618.56357509 539.88105601 C618.57334086 548.17159073 618.5996487 556.461858 618.64007598 564.75229853 C618.67030342 571.1728869 618.68505025 577.59339888 618.6883561 584.01405698 C618.69069912 587.84298013 618.69956134 591.67161711 618.72481728 595.50046349 C618.74821953 599.1063677 618.75228309 602.71179978 618.74205589 606.31776047 C618.74133011 608.25767838 618.76033561 610.19757298 618.78012085 612.13739014 C618.72643367 621.23049489 617.38218293 629.07720758 611.14633179 636.02217102 C603.62262801 642.81506926 593.32320662 644.15806649 583.67098999 645.78852844 C582.33097223 646.02301173 580.99112256 646.25845732 579.65142822 646.49478149 C576.04381445 647.12837152 572.43401228 647.74853623 568.82362771 648.36611342 C565.03125789 649.01716441 561.24104998 649.68057278 557.45057678 650.34255981 C551.09118593 651.45146936 544.73048247 652.55254608 538.3687439 653.64790344 C529.41036589 655.19035108 520.45438768 656.74638003 511.4988848 658.30542219 C499.48634087 660.39600697 487.47303399 662.48229626 475.45714951 664.55360222 C473.54645266 664.88313809 471.63591728 665.21360969 469.72538757 665.54411316 C464.24904603 666.48648842 458.7789613 667.40744244 453.27133179 668.14717102 C453.14758179 668.75818665 453.02383179 669.36920227 452.89633179 669.99873352 C447.50696338 693.91405584 436.78079617 717.34277886 425.23080444 738.85469055 C424.82781128 739.62538879 424.42481812 740.39608704 424.00961304 741.19013977 C423.64907837 741.86069397 423.2885437 742.53124817 422.91708374 743.22212219 C422.09991992 745.65816631 422.35389779 746.76489195 423.27133179 749.14717102 C424.36219601 751.01501978 424.36219601 751.01501978 425.75570679 752.84248352 C426.27197632 753.54888977 426.78824585 754.25529602 427.32015991 754.98310852 C428.16223999 756.11619446 428.16223999 756.11619446 429.02133179 757.27217102 C430.21420376 758.89965526 431.40690748 760.52726283 432.59945679 762.15498352 C433.21111694 762.98546204 433.8227771 763.81594055 434.45297241 764.67158508 C437.24988589 768.47941305 440.00983143 772.31362822 442.77133179 776.14717102 C443.85446274 777.64731717 444.93779674 779.14731672 446.02133179 780.64717102 C462.27133179 803.14717102 462.27133179 803.14717102 478.52133179 825.64717102 C479.05798462 826.39015442 479.59463745 827.13313782 480.14755249 827.89863586 C481.22710228 829.39354694 482.30636822 830.88866305 483.38534546 832.38398743 C486.14923452 836.21360806 488.91848239 840.03916739 491.69711304 843.85810852 C494.90779107 848.27411194 498.09645928 852.70537114 501.27133179 857.14717102 C501.70413452 857.74851868 502.13693726 858.34986633 502.58285522 858.96943665 C508.50576442 867.24528237 511.94722652 873.31786575 510.95101929 883.67842102 C508.54017968 892.43503384 503.16385844 897.83385482 496.87216187 904.07978821 C495.90999743 905.04902184 494.94867576 906.01909271 493.98812866 906.9899292 C491.3918423 909.60860659 488.78310661 912.21452969 486.17115998 914.81757641 C483.98553487 916.99807048 481.8061688 919.18476735 479.62674826 921.3714602 C474.4823701 926.53280462 469.32783282 931.68384172 464.16659546 936.82832336 C458.85543555 942.12256249 453.56086237 947.4329767 448.27433664 952.75180507 C443.72190753 957.33098654 439.15976827 961.90033017 434.58970946 966.46191716 C431.86601824 969.180696 429.1459606 971.90286086 426.43503761 974.63437653 C423.88446812 977.20339215 421.32189188 979.75981195 418.7498703 982.30734444 C417.36805324 983.68182174 415.99844856 985.06854322 414.62934875 986.45568848 C408.83332642 992.16435578 403.42859441 996.22429245 395.30258179 997.67842102 C394.46726929 997.66810852 393.63195679 997.65779602 392.77133179 997.64717102 C391.93601929 997.65748352 391.10070679 997.66779602 390.24008179 997.67842102 C382.32053241 996.2612385 376.01606227 991.84169403 369.70883179 987.08467102 C368.12663472 985.91646384 366.54327908 984.74982437 364.95883179 983.58467102 C364.17250366 983.0045929 363.38617554 982.42451477 362.57601929 981.82685852 C359.16754728 979.3427179 355.69510417 976.9578224 352.20883179 974.58467102 C346.06730774 970.39268056 339.97656579 966.13490542 333.9078064 961.83833313 C328.37530082 957.92258698 322.82657794 954.03057895 317.27133179 950.14717102 C311.15570388 945.87153018 305.04984875 941.58279325 298.95883179 937.27217102 C291.07075075 931.69105353 283.13877948 926.17364956 275.19979858 920.66523743 C274.27207642 920.02118958 273.34435425 919.37714172 272.38851929 918.71357727 C271.50390015 918.10658997 270.61928101 917.49960266 269.70785522 916.8742218 C268.18626559 915.79569223 266.69301794 914.67455094 265.24887085 913.49433899 C263.31375441 911.85481952 263.31375441 911.85481952 260.27133179 910.14717102 C257.30798683 910.36133888 257.30798683 910.36133888 254.27133179 912.14717102 C253.53398804 912.51552063 252.79664429 912.88387024 252.03695679 913.26338196 C250.26308753 914.15643807 248.49612232 915.06328473 246.73471069 915.98066711 C196.43236283 942.14717102 196.43236283 942.14717102 180.27133179 942.14717102 C180.17256241 942.75353394 180.07379303 943.35989685 179.97203064 943.9846344 C175.91629133 968.78501475 171.59466317 993.54001148 167.24535179 1018.29032135 C166.1050685 1024.77977712 164.96916735 1031.26993404 163.84335327 1037.76191711 C162.73842629 1044.13298139 161.62287802 1050.5021007 160.49978828 1056.86998749 C160.07787417 1059.27256302 159.65965613 1061.67579088 159.24534416 1064.07968903 C158.6677453 1067.42665333 158.07649233 1070.77094089 157.48202515 1074.11494446 C157.23485748 1075.57526848 157.23485748 1075.57526848 156.98269653 1077.06509399 C155.20916113 1086.87420267 152.67324215 1096.08064042 144.27133179 1102.14717102 C136.5519234 1106.46004356 129.11714337 1106.72060246 120.44320679 1106.66474915 C119.07865659 1106.67018112 117.71411226 1106.67730977 116.34957886 1106.68598938 C112.67178234 1106.70409839 108.99443874 1106.69720731 105.31663513 1106.68447304 C101.45093651 1106.67428037 97.58527427 1106.68375599 93.71957397 1106.6900177 C87.23024602 1106.697276 80.74110071 1106.68775441 74.25180054 1106.6686554 C66.77059159 1106.64689003 59.28981884 1106.6539427 51.80862045 1106.67596102 C45.36241828 1106.69416711 38.91634671 1106.69664801 32.47012711 1106.68620634 C28.63014842 1106.67999989 24.79037414 1106.67905654 20.95040894 1106.69235229 C17.33862595 1106.70398653 13.72740025 1106.69574895 10.11567688 1106.67277527 C8.17346951 1106.66504377 6.23121448 1106.67677915 4.28903198 1106.68928528 C-5.00821886 1106.60020982 -12.67216208 1105.22090424 -19.66616821 1098.77217102 C-24.3673747 1093.8977014 -26.17736405 1088.23909695 -27.23867798 1081.68110657 C-27.36532019 1080.94758028 -27.49196239 1080.21405399 -27.62244225 1079.45829964 C-28.04338556 1077.00580434 -28.45048795 1074.55122018 -28.85757446 1072.09638977 C-29.15785775 1070.32857082 -29.45895113 1068.56088932 -29.76078796 1066.79333496 C-30.58633232 1061.94335775 -31.39949648 1057.09137401 -32.21057892 1052.23896027 C-32.91472985 1048.03681539 -33.62646539 1043.83596895 -34.33820152 1039.63510323 C-36.41645604 1027.36805586 -38.47296073 1015.09745252 -40.51992798 1002.82514954 C-41.48997544 997.01037051 -42.46534186 991.19649569 -43.44177914 985.38278675 C-44.20198571 980.8511761 -44.95857825 976.31896759 -45.71414375 971.78658104 C-46.07284568 969.63856009 -46.43287677 967.49076065 -46.79429436 965.34319496 C-47.29308783 962.37719077 -47.78678738 959.41038193 -48.27920532 956.4433136 C-48.42717056 955.57035645 -48.5751358 954.69739929 -48.72758484 953.79798889 C-49.37394401 949.87235716 -49.91728263 946.14257523 -49.72866821 942.14717102 C-50.31494995 942.04920227 -50.90123169 941.95123352 -51.50527954 941.85029602 C-58.41360263 940.59460631 -64.8322886 938.56245719 -71.41616821 936.14717102 C-72.50051147 935.7519928 -73.58485474 935.35681458 -74.70205688 934.94966125 C-90.7157844 929.02575639 -106.33302073 922.24980398 -121.34902954 914.10639954 C-125.69577401 911.77673816 -125.69577401 911.77673816 -130.49819946 911.17842102 C-133.08233987 912.30077972 -135.05795789 913.60917573 -137.29116821 915.33467102 C-142.45020128 919.21255569 -147.68465072 922.95546032 -152.97866821 926.64717102 C-153.82953003 927.24167053 -154.68039185 927.83617004 -155.55703735 928.44868469 C-163.07930981 933.7016219 -170.61297692 938.93820338 -178.14614868 944.17549133 C-189.78971592 952.27212833 -201.42100211 960.38658891 -212.9984436 968.57759094 C-215.77558134 970.54153548 -218.55627638 972.50041452 -221.33706665 974.45918274 C-223.07379588 975.68496325 -224.80856653 976.91352024 -226.54214478 978.14375305 C-229.57889948 980.29729443 -232.62208728 982.44150151 -235.66616821 984.58467102 C-236.61338745 985.25933411 -237.56060669 985.93399719 -238.53652954 986.62910461 C-256.09223031 998.94505652 -256.09223031 998.94505652 -267.72866821 997.14717102 C-276.02273868 994.26771335 -281.73561936 988.85239262 -287.79653931 982.71040344 C-288.75599394 981.75609912 -289.71651584 980.80286683 -290.67800903 979.85061646 C-293.26361117 977.28339105 -295.83340711 974.7008827 -298.39993238 972.1146028 C-301.09946812 969.39857219 -303.8117041 966.69527214 -306.52203369 963.99002075 C-311.0680181 959.44854409 -315.60375652 954.89702817 -320.13345337 950.33930969 C-325.35850621 945.0821821 -330.59943752 939.84130501 -335.84915864 934.60881919 C-340.91697194 929.55690694 -345.97337165 924.49371655 -351.02470779 919.42533302 C-353.16687786 917.27631946 -355.31290369 915.13127111 -357.46220016 912.9893856 C-359.99465021 910.46463571 -362.51689782 907.93010349 -365.03182983 905.38790703 C-366.38889945 904.02074595 -367.75571507 902.66328021 -369.12286377 901.30619812 C-375.41199704 894.91895003 -380.23929033 888.73265204 -380.80679321 879.47920227 C-380.47640143 869.61700758 -374.93586279 862.68023153 -369.2159729 855.12471008 C-366.5858468 851.62766126 -364.03718415 848.07175406 -361.47866821 844.52217102 C-360.66196655 843.39391907 -360.66196655 843.39391907 -359.82876587 842.24287415 C-355.73877587 836.58328949 -351.72188113 830.87533555 -347.72866821 825.14717102 C-341.69348034 816.4918691 -335.54986616 807.92094367 -329.35073853 799.38252258 C-317.02036576 782.39021478 -304.82119088 765.30941109 -292.72866821 748.14717102 C-293.26234009 747.0308429 -293.79601196 745.91451477 -294.34585571 744.76435852 C-296.38233761 740.49418143 -298.40216647 736.21630785 -300.41567993 731.93525696 C-301.26590953 730.12982334 -302.11892207 728.3256966 -302.97525024 726.52314758 C-310.14746342 711.39037761 -316.1607332 695.93759043 -321.72866821 680.14717102 C-322.04207153 679.27270325 -322.35547485 678.39823547 -322.67837524 677.49726868 C-322.95407349 676.70755676 -323.22977173 675.91784485 -323.51382446 675.10420227 C-323.75109253 674.42978088 -323.9883606 673.7553595 -324.2328186 673.0605011 C-324.72866821 671.14717102 -324.72866821 671.14717102 -324.72866821 667.14717102 C-325.44250608 667.10005887 -326.15634396 667.05294672 -326.89181328 667.00440693 C-334.64807705 666.43306117 -342.21175614 665.34351209 -349.86587524 663.98579407 C-351.11952881 663.76774109 -352.37318237 663.54968811 -353.66482544 663.32502747 C-357.06643504 662.73295555 -360.46679962 662.13402155 -363.86686182 661.53313422 C-365.99818543 661.15682316 -368.12977752 660.78207272 -370.26147079 660.40786171 C-377.71749279 659.09897886 -385.17251497 657.78456774 -392.62661743 656.46479797 C-399.54591161 655.23986519 -406.46725725 654.02705965 -413.38966858 652.81987923 C-419.36167225 651.77789164 -425.33215517 650.72748166 -431.30154312 649.67061263 C-434.85439998 649.04172551 -438.40775468 648.41612503 -441.96268082 647.79903221 C-445.92742285 647.11044121 -449.88885845 646.40434178 -453.85025024 645.69673157 C-455.01104095 645.49761673 -456.17183167 645.29850189 -457.36779785 645.09335327 C-467.61661979 643.23601582 -477.35405445 640.97576465 -483.72866821 632.14717102 C-488.04154076 624.42776264 -488.30209965 616.9929826 -488.24624634 608.31904602 C-488.25167831 606.95449582 -488.25880696 605.5899515 -488.26748657 604.22541809 C-488.28559558 600.54762157 -488.2787045 596.87027797 -488.26597023 593.19247437 C-488.25577756 589.32677574 -488.26525318 585.46111351 -488.27151489 581.59541321 C-488.27877319 575.10608525 -488.2692516 568.61693994 -488.25015259 562.12763977 C-488.22838722 554.64643083 -488.23543989 547.16565807 -488.25745821 539.68445969 C-488.2756643 533.23825751 -488.2781452 526.79218594 -488.26770353 520.34596634 C-488.26149709 516.50598766 -488.26055373 512.66621337 -488.27384949 508.82624817 C-488.28548373 505.21446518 -488.27724615 501.60323948 -488.25427246 497.99151611 C-488.24654097 496.04930874 -488.25827635 494.10705371 -488.27078247 492.16487122 C-488.18373421 483.07920873 -486.83552921 475.21209902 -480.60366821 468.27217102 C-473.02476027 461.43264465 -462.71594593 460.14569834 -452.98892212 458.58174133 C-451.6341871 458.35551797 -450.27961766 458.12830117 -448.92520142 457.900177 C-445.27852891 457.28890834 -441.62969046 456.69165501 -437.98024035 456.09722614 C-434.15048672 455.47111858 -430.32281667 454.83251229 -426.49487305 454.19544983 C-420.07582791 453.12897817 -413.65544024 452.07094275 -407.23403931 451.01875305 C-398.99359466 449.66846352 -390.75545161 448.30463554 -382.51796913 446.93640518 C-375.42360769 445.75810457 -368.32831281 444.58546271 -361.23281813 443.41400814 C-358.95612577 443.03794387 -356.67954579 442.66120459 -354.40297318 442.2844162 C-350.82970011 441.69343189 -347.25586506 441.10596642 -343.68156433 440.5212307 C-341.74500519 440.20370577 -339.8089569 439.88307017 -337.8729248 439.56234741 C-336.72072449 439.37460251 -335.56852417 439.1868576 -334.38140869 438.99342346 C-333.38042459 438.82900883 -332.3794405 438.66459419 -331.34812355 438.4951973 C-328.72866821 438.14717102 -328.72866821 438.14717102 -324.72866821 438.14717102 C-324.49019165 436.93158508 -324.25171509 435.71599915 -324.00601196 434.46357727 C-322.59957624 428.1659389 -320.46348719 422.15307889 -318.29116821 416.08467102 C-317.8530481 414.86038391 -317.41492798 413.6360968 -316.96353149 412.37471008 C-311.16743836 396.40092571 -303.92141776 381.0411811 -296.10122681 365.96455383 C-293.86807602 361.73298431 -293.86807602 361.73298431 -292.72866821 357.14717102 C-293.65013948 355.08101901 -293.65013948 355.08101901 -295.20132446 353.08467102 C-296.04533813 351.90517883 -296.04533813 351.90517883 -296.90640259 350.70185852 C-297.52837524 349.85881165 -298.1503479 349.01576477 -298.79116821 348.14717102 C-300.09488636 346.33491034 -301.39826248 344.52240356 -302.70132446 342.70967102 C-303.37308716 341.78412415 -304.04484985 340.85857727 -304.73696899 339.90498352 C-307.78346886 335.68663803 -310.75449376 331.4166528 -313.72866821 327.14717102 C-314.89491903 325.48021333 -316.06158721 323.81354757 -317.22866821 322.14717102 C-319.56200155 318.81383769 -321.89533488 315.48050435 -324.22866821 312.14717102 C-324.80600708 311.32241272 -325.38334595 310.49765442 -325.97817993 309.64790344 C-327.14651788 307.97882595 -328.31481206 306.3097178 -329.48306274 304.64057922 C-332.3738031 300.51054764 -335.26526675 296.38102656 -338.15835571 292.25263977 C-345.08665163 282.36392886 -351.99825983 272.46392568 -358.87710571 262.54072571 C-361.9982133 258.04418884 -365.13565649 253.56284307 -368.33804321 249.12373352 C-368.89217896 248.35247131 -369.4463147 247.58120911 -370.01724243 246.78657532 C-371.03839078 245.36925661 -372.06560151 243.95627596 -373.10025024 242.54878235 C-376.90589275 237.25789532 -379.00540465 232.46746179 -379.10366821 225.83467102 C-379.13202759 224.97228821 -379.16038696 224.1099054 -379.18960571 223.22138977 C-377.75127734 213.6284709 -372.00207662 207.7024655 -365.31362915 201.10102844 C-364.34961904 200.13187048 -363.38668124 199.16164491 -362.42472839 198.19044495 C-359.82647134 195.57377723 -357.21288215 192.97295726 -354.59556484 190.37537169 C-351.84884365 187.6451217 -349.11482791 184.90219674 -346.37887573 182.16116333 C-341.78434649 177.56212295 -337.17976366 172.97334027 -332.56900024 168.39057922 C-327.24998705 163.10362289 -321.94720003 157.80080816 -316.65282416 152.48918837 C-311.54378323 147.36424612 -306.42346242 142.25071768 -301.29795074 137.14225197 C-299.12381674 134.97496322 -296.95365002 132.80381536 -294.78664398 130.62940025 C-292.23153949 128.06659583 -289.66665076 125.5139908 -287.09409904 122.96870422 C-285.71022853 121.5949271 -284.33605609 120.21140184 -282.96226501 118.82754517 C-276.63317007 112.59452821 -270.42582049 107.59149136 -261.2147522 107.0941925 C-252.96250161 107.27004818 -246.50291892 111.18233025 -240.16616821 116.08467102 C-238.59271016 117.26147005 -237.01847283 118.43722778 -235.44351196 119.61201477 C-234.65702271 120.20482239 -233.87053345 120.79763 -233.06021118 121.40840149 C-229.50146831 124.06236659 -225.86720015 126.60432129 -222.22866821 129.14717102 C-215.59798064 133.80642752 -209.02134937 138.53663958 -202.45913696 143.29170227 C-197.40784545 146.94712739 -192.32911459 150.56070704 -187.22866821 154.14717102 C-180.53167338 158.85695708 -173.88279563 163.6298933 -167.25039673 168.43013 C-159.6487294 173.93708152 -159.6487294 173.93708152 -152.00332642 179.38301086 C-148.72204886 181.70049337 -145.49500486 184.07371082 -142.29507446 186.50263977 C-140.77295202 187.63416765 -139.25081678 188.7656783 -137.72866821 189.89717102 C-137.0221814 190.44768127 -136.31569458 190.99819153 -135.58779907 191.56538391 C-131.62678397 194.57959815 -131.62678397 194.57959815 -126.84194946 194.78779602 C-125.81456665 194.24638977 -124.78718384 193.70498352 -123.72866821 193.14717102 C-123.02790161 192.79880188 -122.32713501 192.45043274 -121.60513306 192.09150696 C-119.02632311 190.80604351 -116.47298719 189.47579477 -113.91616821 188.14717102 C-66.70916342 164.14717102 -66.70916342 164.14717102 -49.72866821 164.14717102 C-49.63075517 163.47448024 -49.53284212 162.80178946 -49.43196201 162.1087141 C-46.86525483 144.51970425 -44.14000529 126.96144861 -41.28726196 109.41670227 C-40.98395305 107.54915566 -40.98395305 107.54915566 -40.67451668 105.64388084 C-39.71800881 99.75646738 -38.75992033 93.86931682 -37.79929394 87.98257428 C-36.70170725 81.25608379 -35.61103314 74.52851686 -34.52584499 67.80001527 C-33.5740006 61.90149765 -32.61309983 56.00449069 -31.64900398 50.10796165 C-31.24396823 47.62258919 -30.84170069 45.13676389 -30.44231987 42.65047646 C-29.88592737 39.19078425 -29.31917558 35.7329386 -28.74990845 32.27534485 C-28.58931442 31.2618396 -28.4287204 30.24833435 -28.26325989 29.20411682 C-26.53775031 18.86473384 -23.68161051 10.18406241 -14.85757446 3.79170227 C-9.81604247 0.78846709 -5.78112986 0.02432288 0 0 Z M-33.72866821 449.14717102 C-34.75585605 450.08744554 -35.78320889 451.02753982 -36.81069946 451.96748352 C-60.70966109 474.3075063 -76.4785158 509.34736902 -77.85293579 542.10932922 C-78.20144104 556.743313 -78.013463 570.85289919 -74.72866821 585.14717102 C-74.47343384 586.36404602 -74.21819946 587.58092102 -73.95523071 588.83467102 C-65.67301358 624.09108157 -42.313188 655.57646298 -11.83120728 674.87471008 C-5.99800241 678.40497759 0.05234614 681.36675029 6.27133179 684.14717102 C7.44695679 684.68986633 8.62258179 685.23256165 9.83383179 685.79170227 C36.81199816 697.47632477 68.72898141 699.70614548 97.27133179 693.14717102 C99.09664429 692.76431946 99.09664429 692.76431946 100.95883179 692.37373352 C123.12524102 687.16653825 143.10274423 675.93716208 160.27133179 661.14717102 C161.04863647 660.49103821 161.82594116 659.8349054 162.62680054 659.15888977 C177.4510092 646.37083707 188.32197602 629.92754825 196.27133179 612.14717102 C196.8140271 610.97154602 197.35672241 609.79592102 197.91586304 608.58467102 C212.67945549 574.49759173 211.61458058 535.25569792 199.02133179 500.77217102 C193.69151694 487.43953389 187.1608188 475.43010388 178.27133179 464.14717102 C177.80710815 463.55661926 177.34288452 462.9660675 176.86459351 462.35762024 C162.17703386 443.92724634 143.64858902 430.85280737 122.27133179 421.14717102 C121.24008179 420.67537415 120.20883179 420.20357727 119.14633179 419.71748352 C67.99261006 398.27021998 5.88385818 411.17252856 -33.72866821 449.14717102 Z " fill="#FFFFFF" transform="translate(534.7286682128906,46.85282897949219)"/>
</svg>
